<svg width="471" height="78" viewBox="0 0 471 78" fill="none" xmlns="http://www.w3.org/2000/svg">
<path d="M7.82609e-05 2.88012H74.9761C79.2641 2.88012 82.8161 3.71212 85.6321 5.37612C88.4481 6.97612 90.5601 9.05612 91.9681 11.6161C93.4401 14.1761 94.1761 16.8641 94.1761 19.6801C94.1761 22.4961 93.4401 25.2481 91.9681 27.9361C90.4961 30.5601 88.3201 32.7041 85.4401 34.3681C82.5601 36.0321 78.9761 36.8641 74.6881 36.8641C74.6881 36.8641 74.6561 36.8641 74.5921 36.8641C74.5921 36.8641 74.5921 36.8961 74.5921 36.9601C74.6561 36.9601 74.6881 36.9601 74.6881 36.9601C79.8721 36.9601 84.1601 37.8881 87.5521 39.7441C90.9441 41.6001 93.4721 43.9681 95.1361 46.8481C96.8001 49.7281 97.6321 52.7681 97.6321 55.9681C97.6321 58.3361 97.1521 60.6401 96.1921 62.8801C95.2961 65.1201 93.9201 67.1681 92.0641 69.0241C90.2081 70.8161 87.9041 72.2561 85.1521 73.3441C82.4001 74.3681 79.2001 74.8801 75.5521 74.8801H7.82609e-05C7.82609e-05 70.5281 7.82609e-05 66.2081 7.82609e-05 61.9201C7.82609e-05 57.5681 7.82609e-05 53.2161 7.82609e-05 48.8641C7.82609e-05 44.5121 7.82609e-05 40.1921 7.82609e-05 35.9041C7.82609e-05 31.5521 7.82609e-05 27.2001 7.82609e-05 22.8481C7.82609e-05 19.5201 7.82609e-05 16.1921 7.82609e-05 12.8641C7.82609e-05 9.53613 7.82609e-05 6.20812 7.82609e-05 2.88012ZM37.8241 40.7041C37.8241 41.4081 37.8241 42.1121 37.8241 42.8161C37.8241 43.5201 37.8241 44.2241 37.8241 44.9281C37.8241 45.4401 37.8241 45.9521 37.8241 46.4641C37.8241 46.9121 37.8241 47.3601 37.8241 47.8081C37.8241 48.2561 37.8241 48.7041 37.8241 49.1521C37.8241 49.2161 37.8561 49.2481 37.9201 49.2481H51.5521C53.2801 49.2481 54.5601 48.8001 55.3921 47.9041C56.2881 47.0081 56.7361 45.9841 56.7361 44.8321C56.7361 44.2561 56.6401 43.7441 56.4481 43.2961C56.2561 42.7841 55.9681 42.3361 55.5841 41.9521C55.2641 41.5041 54.8161 41.1841 54.2401 40.9921C53.7281 40.7361 53.1201 40.6081 52.4161 40.6081H37.9201C37.9201 40.6081 37.8881 40.6401 37.8241 40.7041ZM37.9201 27.1681C37.8561 27.1681 37.8241 27.2001 37.8241 27.2641C37.8241 27.6481 37.8241 28.0961 37.8241 28.6081C37.8241 29.0561 37.8241 29.5361 37.8241 30.0481C37.8241 30.4961 37.8241 30.9761 37.8241 31.4881C37.8241 32.1921 37.8241 32.9281 37.8241 33.6961C37.8241 34.4001 37.8241 35.0721 37.8241 35.7121C37.8241 35.7761 37.8561 35.8081 37.9201 35.8081H51.0721C52.2241 35.8081 53.1841 35.6161 53.9521 35.2321C54.7201 34.7841 55.2961 34.2401 55.6801 33.6001C56.0641 32.8961 56.2561 32.1601 56.2561 31.3921C56.2561 30.3041 55.8721 29.3441 55.1041 28.5121C54.4001 27.6161 53.3441 27.1681 51.9361 27.1681H37.9201ZM100.406 30.4321H135.926V55.3921H100.406V30.4321ZM189.893 31.4881C199.493 31.4881 207.525 31.9041 213.989 32.7361C220.453 33.5681 225.605 34.8801 229.445 36.6721C233.285 38.4001 236.037 40.6401 237.701 43.3921C239.365 46.0801 240.197 49.2801 240.197 52.9921C240.197 57.0241 238.885 60.6081 236.261 63.7441C233.701 66.8161 230.085 69.4081 225.413 71.5201C220.805 73.5681 215.429 75.1041 209.285 76.1281C203.205 77.2161 196.645 77.7601 189.605 77.7601C181.797 77.7601 174.693 77.1841 168.293 76.0321C161.893 74.8801 156.453 73.1201 151.973 70.7521C147.493 68.3201 144.133 65.2161 141.893 61.4401C139.717 57.6641 138.853 53.1521 139.301 47.9041L180.293 45.1201C179.781 47.0401 179.909 48.6401 180.677 49.9201C181.509 51.2001 182.789 52.1601 184.517 52.8001C186.245 53.4401 188.165 53.7601 190.277 53.7601C191.557 53.7601 192.709 53.6641 193.733 53.4721C194.821 53.2801 195.781 52.9921 196.613 52.6081C197.445 52.2241 198.085 51.7441 198.533 51.1681C198.981 50.5281 199.205 49.8241 199.205 49.0561C199.205 47.5201 198.405 46.5281 196.805 46.0801C195.269 45.6321 192.997 45.4081 189.989 45.4081C189.861 45.4081 189.701 45.4081 189.509 45.4081C189.381 45.4081 189.221 45.4081 189.029 45.4081C188.901 45.4081 188.741 45.4081 188.549 45.4081C188.357 45.4081 188.165 45.4081 187.973 45.4081C187.845 45.4081 187.717 45.4081 187.589 45.4081C178.117 45.4081 170.245 44.9281 163.973 43.9681C157.701 42.9441 152.741 41.5361 149.093 39.7441C145.445 37.9521 142.853 35.8401 141.317 33.4081C139.781 30.9121 139.013 28.1281 139.013 25.0561C139.013 21.7921 139.877 18.8481 141.605 16.2241C143.333 13.5361 145.765 11.2001 148.901 9.21613C152.101 7.16813 155.813 5.47212 160.037 4.12812C164.325 2.78412 168.997 1.76012 174.053 1.05612C179.173 0.352123 184.517 0.000123978 190.085 0.000123978C197.957 0.000123978 204.997 0.704124 211.205 2.11213C217.477 3.52012 222.725 5.53612 226.949 8.16012C231.237 10.7841 234.309 13.9201 236.165 17.5681C238.021 21.2161 238.469 25.3121 237.509 29.8561L197.861 31.6801C198.565 29.8241 198.533 28.3201 197.765 27.1681C196.997 25.9521 195.781 25.0881 194.117 24.5761C192.517 24.0001 190.693 23.7121 188.645 23.7121C187.365 23.7121 186.213 23.8401 185.189 24.0961C184.165 24.2881 183.269 24.6081 182.501 25.0561C181.797 25.4401 181.221 25.9201 180.773 26.4961C180.389 27.0721 180.197 27.6801 180.197 28.3201C180.197 29.0881 180.453 29.7281 180.965 30.2401C181.477 30.6881 182.245 31.0081 183.269 31.2001C184.357 31.3921 185.765 31.4881 187.493 31.4881C187.621 31.4881 187.749 31.4881 187.877 31.4881C188.069 31.4881 188.229 31.4881 188.357 31.4881C188.549 31.4881 188.709 31.4881 188.837 31.4881C189.029 31.4881 189.189 31.4881 189.317 31.4881C189.509 31.4881 189.701 31.4881 189.893 31.4881ZM243.281 74.8801C243.281 70.2721 243.281 65.6641 243.281 61.0561C243.281 56.4481 243.281 51.8401 243.281 47.2321C243.281 42.6241 243.281 38.0161 243.281 33.4081C243.281 28.8001 243.281 24.1921 243.281 19.5841C243.281 16.7681 243.281 13.9841 243.281 11.2321C243.281 8.41612 243.281 5.63212 243.281 2.88012H283.121C283.121 9.08812 283.121 15.2961 283.121 21.5041C283.121 27.6481 283.121 33.8241 283.121 40.0321C283.121 43.8721 283.121 47.7441 283.121 51.6481C283.121 55.4881 283.121 59.3601 283.121 63.2641C283.121 67.1041 283.121 70.9761 283.121 74.8801H243.281ZM344.185 2.88012C350.201 2.88012 355.513 3.55212 360.121 4.89612C364.793 6.17612 368.793 7.96812 372.121 10.2721C375.449 12.5761 378.169 15.2641 380.281 18.3361C382.393 21.3441 383.961 24.5761 384.985 28.0321C386.009 31.4881 386.521 35.0081 386.521 38.5921C386.521 43.1361 385.689 47.5841 384.025 51.9361C382.425 56.2241 379.897 60.0961 376.441 63.5521C373.049 67.0081 368.665 69.7601 363.289 71.8081C357.977 73.8561 351.609 74.8801 344.185 74.8801H286.969C286.969 70.7841 286.969 66.7201 286.969 62.6881C286.969 58.5921 286.969 54.5281 286.969 50.4961C286.969 46.4001 286.969 42.3361 286.969 38.3041C286.969 34.2081 286.969 30.1121 286.969 26.0161C286.969 22.1761 286.969 18.3361 286.969 14.4961C286.969 10.5921 286.969 6.72012 286.969 2.88012H344.185ZM336.505 30.5281H325.081C325.081 30.5281 325.049 30.5281 324.985 30.5281C324.985 30.5281 324.985 30.5601 324.985 30.6241C324.985 30.6241 324.985 30.6561 324.985 30.7201V47.0401C324.985 47.1041 324.985 47.1681 324.985 47.2321C325.049 47.2321 325.081 47.2321 325.081 47.2321H336.697C338.105 47.2321 339.353 47.0081 340.441 46.5601C341.593 46.1121 342.553 45.5041 343.321 44.7361C344.089 43.9681 344.665 43.0721 345.049 42.0481C345.497 41.0241 345.721 39.9681 345.721 38.8801C345.721 37.3441 345.337 35.9361 344.569 34.6561C343.865 33.3761 342.841 32.3841 341.497 31.6801C340.153 30.9121 338.489 30.5281 336.505 30.5281ZM470.174 27.0721H428.414C428.35 27.0721 428.318 27.0721 428.318 27.0721V32.3521C428.318 32.4161 428.318 32.4801 428.318 32.5441C428.382 32.5441 428.414 32.5441 428.414 32.5441H468.734V46.0801H428.414C428.414 46.0801 428.382 46.0801 428.318 46.0801C428.318 46.0801 428.318 46.1121 428.318 46.1761C428.318 46.1761 428.318 46.2081 428.318 46.2721V51.6481C428.382 51.6481 428.414 51.6481 428.414 51.6481H470.75V74.8801H389.438C389.438 71.1041 389.438 67.3281 389.438 63.5521C389.438 59.7121 389.438 55.9041 389.438 52.1281C389.438 48.3521 389.438 44.5761 389.438 40.8001C389.438 36.9601 389.438 33.1521 389.438 29.3761C389.438 25.5361 389.438 21.7281 389.438 17.9521C389.438 15.4561 389.438 12.9601 389.438 10.4641C389.438 7.90413 389.438 5.37612 389.438 2.88012H470.174V27.0721Z" fill="#FFE6DB"/>
</svg>
